<svg width="284" height="72" viewBox="0 0 284 72" fill="none" xmlns="http://www.w3.org/2000/svg">
<mask id="mask0_3_43" style="mask-type:luminance" maskUnits="userSpaceOnUse" x="2" y="6" width="280" height="63">
<path d="M281.746 6.16003H2.25397V68.0906H281.746V6.16003Z" fill="white"/>
</mask>
<g mask="url(#mask0_3_43)">
<path d="M13.7999 52.8813C15.3292 63.1769 17.1579 70.9155 29.0838 67.0622C40.5214 63.3836 51.5259 56.8449 61.19 49.4327C64.6539 46.4668 70.693 42.2825 70.8127 37.3669C70.693 32.4329 64.6539 28.267 61.19 25.2965C51.5167 17.8842 40.5214 11.3592 29.0838 7.66227C17.1579 3.81814 15.3292 11.5616 13.7999 21.8478C12.6115 32.1584 12.6115 42.5709 13.7999 52.8813Z" fill="#0098FF"/>
<path d="M3.39311 23.7692C4.70131 16.9592 6.66361 12.0161 15.4571 13.7129C14.6976 16.3782 14.1432 19.0975 13.7988 21.8471C12.615 32.1579 12.615 42.5698 13.7988 52.8806C14.1459 55.6299 14.7002 58.349 15.4571 61.0148C6.66821 62.7116 4.70591 57.7685 3.39311 50.9585L3.30096 50.4711L3.12597 49.4872C2.02051 41.4425 2.02051 33.2852 3.12597 25.2407L3.30096 24.2566L3.39311 23.7692Z" fill="#FF8800"/>
<path d="M15.4582 13.7087C16.0662 13.8283 16.7111 13.9755 17.4205 14.1686C28.0887 17.0517 38.3655 22.1511 47.3894 27.9403C50.6137 30.2623 56.252 33.518 56.3625 37.3712C56.252 41.2245 50.6092 44.48 47.3894 46.7975C38.3655 52.5868 28.0887 57.6909 17.4205 60.5693C16.7745 60.7552 16.1196 60.9089 15.4582 61.0292C14.6991 58.3623 14.1447 55.6414 13.7999 52.8903C12.6115 42.5799 12.6115 32.1674 13.7999 21.8568C14.145 19.1235 14.6947 16.4199 15.4444 13.7685L15.4582 13.7087Z" fill="#43E700"/>
<path d="M21.7509 27.5816C21.7509 27.5816 21.0968 28.6393 21.0968 37.3851C21.0968 46.1308 21.7509 47.1334 21.7509 47.1334C21.972 48.2186 22.405 48.5633 23.5934 48.2875C23.5934 48.2875 25.5557 47.9839 33.3957 44.0019C41.2356 40.0198 42.5438 38.5162 42.5438 38.5162C43.3868 37.6657 43.6127 37.1 42.5438 36.2171C42.5438 36.2171 40.3882 34.2306 33.3957 30.6119C26.4034 26.993 23.5934 26.4276 23.5934 26.4276C22.6307 26.1515 22.0089 26.4643 21.7509 27.5816Z" fill="white"/>
<path fill-rule="evenodd" clip-rule="evenodd" d="M252.643 37.4675C251.315 48.0803 246.8 53.6578 234.679 55.0373L234.697 59.6309C251.662 57.778 255.517 49.3999 257.031 37.4675H252.643ZM255.866 55.157V59.6356L255.882 59.6309C262.195 57.4549 266.128 54.3539 268.261 51.0179C271.243 53.5151 273.841 56.3265 276.075 59.5091H281.59C279.084 55.8882 276.075 52.5087 273.021 50.3154H268.682C269.829 48.2697 270.325 46.1547 270.303 44.1257C270.296 42.9622 270.303 41.7636 270.314 40.0469C270.33 37.8756 270.35 34.8757 270.35 30.069H266.435C266.466 34.2718 266.351 41.1323 266.043 45.243C265.702 49.7493 261.97 52.7704 255.866 55.157ZM273.282 28.4688V48.2411L277.77 48.2274V27.3605C277.815 25.8892 277.619 25.043 277.161 24.5786C276.706 24.1142 275.899 23.9074 274.54 23.9074H269.516L271.155 19.1067H278.856V15.4741H257.899V19.1343H266.719L264.992 23.9348H259.082L258.898 48.2549H263.011L263.196 27.4754H272.315C272.446 27.466 272.575 27.4822 272.696 27.5231C272.82 27.5643 272.933 27.6293 273.03 27.7146C273.12 27.8168 273.19 27.9362 273.235 28.0658C273.278 28.1954 273.294 28.3325 273.282 28.4688ZM237.911 36.0558C237.039 39.9953 235.828 43.8523 234.291 47.5837H238.833C240.25 43.8415 241.344 39.9848 242.099 36.0558H237.911ZM244.824 32.6072L243.541 46.2042L248.101 46.2364L249.309 32.6072H257.313V28.8135H249.602V23.7049H256.434V20.0769H249.602V14.3613H245.096V28.8227H241.749V18.7894H237.399V28.8135H234.649V32.6072H244.824ZM217.258 59.4205C216.804 59.4205 216.369 59.2409 216.048 58.9212C215.727 58.6013 215.546 58.1675 215.544 57.7145V47.7225L214.987 48.8768C212.896 53.1439 206.696 58.6204 200.03 59.632V55.2728C206.194 53.8382 210.625 49.1067 212.564 43.3773C214.023 39.1336 213.894 33.8987 213.74 27.6548C213.7 26.01 213.657 24.2955 213.642 22.5104H218.299C218.345 33.8267 218.018 39.9285 216.659 44.8119L216.563 45.1613H220.201V54.974H230.159L229.51 59.402L217.258 59.4205ZM190.541 59.4205V38.6962C188.498 41.1379 186.216 43.3699 183.728 45.3591V39.524C193.073 30.9213 194.461 27.29 195.152 25.4806C195.184 25.3976 195.215 25.3175 195.244 25.2419C195.265 25.1879 195.273 25.1296 195.266 25.072C195.259 25.0144 195.239 24.9595 195.206 24.9116C195.174 24.8636 195.13 24.8243 195.079 24.797C195.028 24.7696 194.971 24.755 194.913 24.7545H184.516V20.8459H199.307C199.548 20.8447 199.786 20.8986 200.003 21.0036C200.22 21.1086 200.409 21.2618 200.557 21.4514C200.705 21.641 200.808 21.862 200.857 22.0975C200.907 22.3329 200.901 22.5765 200.841 22.8094C199.865 26.4465 195.24 33.7761 195.24 33.7761V34.5211H198.856C199.961 36.3605 201.352 39.7539 202.195 41.837H197.524C196.843 39.8574 196.081 37.9071 195.24 35.9903V59.4205H190.541ZM222.399 44.4026V20.2527C222.399 19.9893 222.294 19.7367 222.107 19.5504C221.921 19.3642 221.668 19.2595 221.404 19.2595H209.344V44.2877H204.738V15.6315H224.347C225.08 15.6315 225.782 15.9222 226.301 16.4396C226.819 16.957 227.112 17.6587 227.112 18.3904V44.3981L222.399 44.4026ZM146.72 28.0879H136.389V32.0378H141.617L141.128 57.7328C141.124 57.9506 141.163 58.1672 141.244 58.3697C141.324 58.5725 141.444 58.757 141.597 58.9127C141.749 59.0686 141.932 59.1923 142.133 59.2772C142.334 59.362 142.55 59.4059 142.768 59.4065H151.843V54.9738H146.403L146.72 28.0879ZM147.79 24.901H142.787C142.197 23.1905 141.585 21.4432 141 19.7786C140.415 18.114 139.83 16.4495 139.259 14.7849H144.022L147.79 24.901ZM176.43 54.9736L176.637 18.3348C176.639 17.9254 176.56 17.5197 176.405 17.141C176.249 16.7623 176.02 16.418 175.73 16.1279C175.441 15.8378 175.097 15.6076 174.718 15.4505C174.34 15.2934 173.934 15.2126 173.524 15.2126H150.232V19.1625H170.511C170.755 19.1625 170.99 19.2594 171.163 19.4318C171.335 19.6043 171.432 19.8382 171.432 20.0821C171.432 20.0821 171.34 51.9248 171.289 57.7647C171.288 57.9812 171.33 58.1958 171.412 58.3965C171.494 58.597 171.615 58.7792 171.768 58.9329C171.92 59.0868 172.102 59.209 172.302 59.2925C172.502 59.3762 172.717 59.4194 172.934 59.42H182.354L183.004 54.9736H176.43ZM162.857 20.9236L162.825 34.2493H169.628V38.5027H162.806L162.64 59.4245H157.578L157.744 38.5027H150.802V34.2493H157.762L157.827 20.9006L162.857 20.9236ZM190.987 20.8453H195.685L192.972 14.7205H188.366C189.158 16.2609 190.609 19.7693 190.987 20.8453ZM104.688 49.9662H122.966V53.415H104.688V49.9662ZM126.023 38.0936C128.139 39.3066 130.427 40.192 132.808 40.7194V36.7326C129.943 36.0061 125.599 34.0058 123.844 31.6055L123.568 31.2284H131.735V27.7799H118.717L118.796 27.4349C118.842 27.2097 118.897 26.9753 118.952 26.7635C119.094 26.2215 119.207 25.6718 119.289 25.1174V24.9428H129.985V21.3929H126.954L127.073 21.025C127.676 19.1512 128.156 17.2405 128.511 15.3048H123.738C123.457 17.3156 123.028 19.3028 122.453 21.2504L122.407 21.3929H119.8V21.0802C119.89 18.8643 119.793 16.6447 119.51 14.445H114.65C114.931 16.6834 115.031 18.9407 114.949 21.1952V21.3929H112.144L111.73 20.3215C111.034 18.5374 110.431 16.9832 109.832 15.3048H105.014L107.317 21.3929H105.055V24.9428H114.424L114.355 25.283C114.206 26.0906 113.984 26.8832 113.692 27.6512L113.641 27.7799H103.581V31.2284H111.873L111.49 31.6654C109.795 33.6013 106.663 35.1875 103.387 36.1487V40.6825C104.818 40.3166 106.207 39.8068 107.533 39.1604L108.261 38.7835H120.887V43.938H112.499V40.5308H107.709V47.4282H124.577C124.764 47.414 124.952 47.4383 125.129 47.4991C125.306 47.5601 125.47 47.6564 125.609 47.7821C125.725 47.9124 125.814 48.0654 125.868 48.2319C125.922 48.3982 125.94 48.5739 125.922 48.7478V55.8934H110.583V59.4938H130.782C130.832 54.9783 130.86 49.8375 130.782 46.0625C130.801 45.7738 130.762 45.484 130.667 45.2108C130.573 44.9375 130.423 44.6859 130.229 44.4715C129.736 44.0116 128.847 43.9243 127.967 43.9243H125.599L125.682 37.8869L126.023 38.0936ZM113.25 35.4175L113.743 34.9576C114.978 33.8549 116.099 32.6318 117.091 31.3067L117.151 31.201H118.879L118.971 31.3481C119.826 32.6736 120.833 33.8956 121.97 34.99L122.43 35.413L113.25 35.4175ZM88.7356 15.7417H98.1741C99.7219 15.7417 100.625 15.9854 101.016 16.3671C101.408 16.7487 101.61 17.3879 101.61 18.3857V59.5031H96.9488L97.1192 43.63H93.1486V43.8323C93.0334 49.0376 92.6924 54.3071 92.1397 59.5031H87.5933C88.244 54.2349 88.6251 48.9371 88.7356 43.63V15.7417ZM93.1486 39.9791H97.1147L97.1974 31.3574H93.1254L93.1486 39.9791ZM93.1531 27.7569H97.2251L97.3081 20.832C97.3275 20.6605 97.3108 20.4869 97.2594 20.3223C97.2078 20.1576 97.1224 20.0055 97.0085 19.8755C96.8564 19.7541 96.6815 19.6642 96.494 19.6113C96.3064 19.5584 96.1103 19.5435 95.9169 19.5674H93.1531V27.7569Z" fill="white"/>
</g>
</svg>
